<?xml version="1.0" standalone="no"?>
<!DOCTYPE svg PUBLIC "-//W3C//DTD SVG 20010904//EN"
 "http://www.w3.org/TR/2001/REC-SVG-20010904/DTD/svg10.dtd">
<svg version="1.0" xmlns="http://www.w3.org/2000/svg"
 width="500.000000pt" height="500.000000pt" viewBox="0 0 500.000000 500.000000"
 preserveAspectRatio="xMidYMid meet">
<metadata>
Created by potrace 1.14, written by Peter Selinger 2001-2017
</metadata>
<g transform="translate(0.000000,500.000000) scale(0.100000,-0.100000)"
fill="#000000" stroke="none">
<path d="M0 2500 l0 -2500 2500 0 2500 0 0 2500 0 2500 -2500 0 -2500 0 0
-2500z m520 135 l0 -155 -50 0 -50 0 0 148 c0 82 3 152 7 155 3 4 26 7 50 7
l43 0 0 -155z m339 23 c25 -71 48 -128 51 -128 3 0 19 37 35 83 l30 82 49 3
c43 3 48 1 42 -15 -48 -130 -152 -393 -156 -393 -7 0 -190 474 -190 490 0 7
19 10 47 8 l47 -3 45 -127z m436 -28 c61 -87 113 -159 118 -160 4 0 7 72 7
160 l0 160 45 0 45 0 0 -250 0 -250 -47 0 -48 0 -110 159 -110 159 -3 -84 c-2
-59 1 -90 11 -106 8 -13 18 -39 21 -59 4 -25 13 -38 26 -42 18 -5 20 -14 20
-106 0 -122 1 -121 -135 -121 -134 0 -135 1 -135 110 0 96 5 120 25 120 8 0
16 17 20 40 4 22 15 50 26 64 17 22 19 42 19 195 l0 171 48 0 47 0 110 -160z
m442 147 c118 -31 173 -106 173 -236 0 -52 -6 -89 -19 -117 -39 -86 -140 -134
-284 -134 l-77 0 0 100 0 100 50 0 50 0 0 -56 0 -57 46 7 c96 13 140 65 138
165 -2 82 -52 136 -136 147 l-48 7 0 -57 0 -56 -50 0 -50 0 0 100 0 100 78 0
c43 0 101 -6 129 -13z m293 -142 l0 -155 -50 0 -50 0 0 155 0 155 50 0 50 0 0
-155z m535 136 c55 -25 121 -99 135 -153 28 -101 -13 -230 -124 -387 l-53 -76
30 -15 c50 -25 57 -47 24 -76 -15 -13 -33 -24 -40 -24 -7 0 3 9 21 20 38 23
41 43 10 64 -31 22 -51 20 -78 -9 l-24 -25 -25 30 c-25 28 -27 29 -59 15 -41
-18 -50 -40 -26 -66 15 -17 16 -19 1 -14 -31 12 -32 47 -3 72 15 13 34 23 42
23 8 0 14 2 14 5 0 2 -22 35 -49 72 -27 38 -69 106 -92 153 -40 78 -44 91 -44
160 1 111 47 187 140 231 53 24 147 25 200 0z m545 -81 l0 -100 -50 0 -50 0 0
55 c0 62 -2 62 -75 44 -78 -20 -122 -97 -106 -186 16 -86 62 -115 194 -121
l87 -4 0 -46 0 -45 -97 5 c-202 10 -283 84 -283 256 0 71 19 124 58 165 53 56
112 74 240 76 l82 1 0 -100z m112 -16 l3 -115 93 115 94 116 60 0 c57 0 60 -1
46 -17 -61 -73 -188 -232 -188 -237 0 -3 39 -52 88 -108 48 -57 93 -111 101
-121 12 -16 9 -17 -50 -16 l-64 0 -70 90 -70 89 -67 -73 -68 -72 0 233 0 232
45 0 44 0 3 -116z m568 71 l0 -45 -75 0 -75 0 0 -55 0 -54 103 -3 102 -3 3
-42 3 -42 -103 -3 -103 -3 0 -55 0 -55 73 -3 72 -3 0 -44 0 -45 -120 0 -120 0
0 250 0 250 120 0 120 0 0 -45z m320 18 c60 -27 97 -66 117 -124 l18 -49 190
-2 190 -3 3 -77 3 -78 -46 0 c-45 0 -45 0 -45 35 0 31 -3 35 -25 35 -22 0 -25
-4 -25 -35 0 -34 -1 -35 -40 -35 -39 0 -40 1 -40 35 l0 35 -83 0 -83 0 -12
-47 c-28 -103 -136 -163 -295 -163 l-77 0 0 100 0 100 50 0 50 0 0 -56 0 -57
46 7 c96 13 140 65 138 165 -2 82 -52 136 -136 147 l-48 7 0 -57 0 -56 -50 0
-50 0 0 101 0 102 103 -5 c73 -3 115 -10 147 -25z m-3410 -428 l0 -46 -137 3
-138 3 -3 43 -3 42 140 0 141 0 0 -45z m1510 0 l0 -45 -140 0 -140 0 0 45 0
45 140 0 140 0 0 -45z m288 -302 c-15 -2 -42 -2 -60 0 -18 2 -6 4 27 4 33 0
48 -2 33 -4z"/>
<path d="M1092 2398 c-7 -7 -12 -27 -12 -45 l0 -33 55 0 55 0 0 33 c0 41 -15
57 -55 57 -17 0 -36 -5 -43 -12z"/>
<path d="M1106 2244 c-3 -8 -1 -24 4 -34 6 -10 10 -28 10 -39 0 -15 6 -21 21
-21 17 0 20 4 16 22 -3 12 -2 29 3 39 6 10 7 25 4 33 -8 21 -50 21 -58 0z"/>
<path d="M2412 2610 c-41 -38 -40 -92 1 -130 51 -48 137 -7 137 65 0 72 -86
113 -138 65z m78 -38 c45 -36 1 -99 -50 -72 -25 14 -27 65 -2 79 23 14 27 14
52 -7z"/>
</g>
</svg>
